<mxfile host="65bd71144e">
    <diagram id="e1pzIPCL9Qj7Mbw-mWnJ" name="Page-1">
        <mxGraphModel dx="1661" dy="1139" grid="0" gridSize="10" guides="1" tooltips="1" connect="1" arrows="1" fold="1" page="1" pageScale="1" pageWidth="1654" pageHeight="1169" math="0" shadow="0">
            <root>
                <mxCell id="0"/>
                <mxCell id="1" parent="0"/>
                <mxCell id="48" value="" style="group" parent="1" vertex="1" connectable="0">
                    <mxGeometry x="1097" y="215" width="205" height="335" as="geometry"/>
                </mxCell>
                <mxCell id="44" value="" style="rounded=1;whiteSpace=wrap;html=1;fillColor=#bac8d3;strokeColor=none;" parent="48" vertex="1">
                    <mxGeometry width="205" height="335" as="geometry"/>
                </mxCell>
                <mxCell id="46" value="Harmonised" style="strokeWidth=2;html=1;shape=mxgraph.flowchart.database;whiteSpace=wrap;" parent="48" vertex="1">
                    <mxGeometry x="46" y="196" width="113" height="115" as="geometry"/>
                </mxCell>
                <mxCell id="59" style="edgeStyle=orthogonalEdgeStyle;rounded=1;html=1;flowAnimation=1;" parent="48" source="47" target="46" edge="1">
                    <mxGeometry relative="1" as="geometry"/>
                </mxCell>
                <mxCell id="47" value="Standardised" style="strokeWidth=2;html=1;shape=mxgraph.flowchart.database;whiteSpace=wrap;" parent="48" vertex="1">
                    <mxGeometry x="46" y="33" width="113" height="115" as="geometry"/>
                </mxCell>
                <mxCell id="43" value="" style="rounded=1;whiteSpace=wrap;html=1;fillColor=#fad7ac;strokeColor=#b46504;" parent="1" vertex="1">
                    <mxGeometry x="667" y="539" width="146.5" height="181" as="geometry"/>
                </mxCell>
                <mxCell id="36" style="edgeStyle=orthogonalEdgeStyle;rounded=1;html=1;flowAnimation=1;startArrow=none;" parent="1" source="11" target="3" edge="1">
                    <mxGeometry relative="1" as="geometry"/>
                </mxCell>
                <mxCell id="35" value="" style="rounded=1;whiteSpace=wrap;html=1;fillColor=#d5e8d4;strokeColor=none;" parent="1" vertex="1">
                    <mxGeometry x="44.25" y="9" width="145" height="206" as="geometry"/>
                </mxCell>
                <mxCell id="32" value="" style="group" parent="1" vertex="1" connectable="0">
                    <mxGeometry x="44.25" y="227" width="145" height="774" as="geometry"/>
                </mxCell>
                <mxCell id="28" value="ssssss" style="rounded=1;whiteSpace=wrap;html=1;fillColor=#dae8fc;strokeColor=none;" parent="32" vertex="1">
                    <mxGeometry width="145" height="774" as="geometry"/>
                </mxCell>
                <mxCell id="8" value="&lt;a href=&quot;https://github.com/Planning-Inspectorate/ODW-Service/blob/main/workspace/linkedService/ls_datalab.json&quot;&gt;Datalab Fileshare&lt;/a&gt;" style="aspect=fixed;html=1;points=[];align=center;image;fontSize=12;image=img/lib/azure2/storage/Azure_Fileshare.svg;" parent="32" vertex="1">
                    <mxGeometry x="32" y="342" width="68" height="68" as="geometry"/>
                </mxCell>
                <mxCell id="12" value="&lt;a href=&quot;https://github.com/Planning-Inspectorate/ODW-Service/blob/main/workspace/linkedService/ls_ms_graph.json&quot;&gt;Azure Entra ID&lt;br&gt;Users&lt;/a&gt;" style="aspect=fixed;html=1;points=[];align=center;image;fontSize=12;image=img/lib/azure2/identity/Azure_Active_Directory.svg;" parent="32" vertex="1">
                    <mxGeometry x="31" y="448" width="70" height="64" as="geometry"/>
                </mxCell>
                <mxCell id="17" value="&lt;a href=&quot;https://github.com/Planning-Inspectorate/ODW-Service/blob/main/workspace/linkedService/ls_zendesk_custom.json&quot;&gt;Zendesk API&lt;/a&gt;" style="sketch=0;pointerEvents=1;shadow=0;dashed=0;html=1;strokeColor=none;fillColor=#DF8C42;labelPosition=center;verticalLabelPosition=bottom;verticalAlign=top;align=center;outlineConnect=0;shape=mxgraph.veeam2.restful_api;" parent="32" vertex="1">
                    <mxGeometry x="49" y="564" width="34" height="34" as="geometry"/>
                </mxCell>
                <mxCell id="18" value="&lt;a href=&quot;https://github.com/Planning-Inspectorate/ODW-Service/blob/main/workspace/linkedService/ls_listed_building.json&quot;&gt;Listed building API&lt;/a&gt;" style="sketch=0;pointerEvents=1;shadow=0;dashed=0;html=1;strokeColor=none;fillColor=#DF8C42;labelPosition=center;verticalLabelPosition=bottom;verticalAlign=top;align=center;outlineConnect=0;shape=mxgraph.veeam2.restful_api;" parent="32" vertex="1">
                    <mxGeometry x="49" y="633" width="34" height="34" as="geometry"/>
                </mxCell>
                <mxCell id="19" value="&lt;a href=&quot;https://github.com/Planning-Inspectorate/ODW-Service/blob/main/workspace/linkedService/ls_ims_auth.json&quot;&gt;IMS API&lt;/a&gt;" style="sketch=0;pointerEvents=1;shadow=0;dashed=0;html=1;strokeColor=none;fillColor=#DF8C42;labelPosition=center;verticalLabelPosition=bottom;verticalAlign=top;align=center;outlineConnect=0;shape=mxgraph.veeam2.restful_api;" parent="32" vertex="1">
                    <mxGeometry x="49" y="699" width="34" height="34" as="geometry"/>
                </mxCell>
                <mxCell id="2" value="&lt;a href=&quot;https://github.com/Planning-Inspectorate/ODW-Service/blob/main/workspace/linkedService/ls_sql_mipins.json&quot;&gt;MiPINS&lt;/a&gt;" style="aspect=fixed;html=1;points=[];align=center;image;fontSize=12;image=img/lib/azure2/databases/SQL_Database.svg;" parent="32" vertex="1">
                    <mxGeometry x="42" y="34" width="48" height="64" as="geometry"/>
                </mxCell>
                <mxCell id="6" value="&lt;a href=&quot;https://github.com/Planning-Inspectorate/ODW-Service/blob/main/workspace/linkedService/ls_sql_hzn.json&quot;&gt;Horizon&lt;/a&gt;" style="aspect=fixed;html=1;points=[];align=center;image;fontSize=12;image=img/lib/azure2/databases/SQL_Server.svg;" parent="32" vertex="1">
                    <mxGeometry x="42" y="136" width="68" height="68" as="geometry"/>
                </mxCell>
                <mxCell id="15" value="&lt;a href=&quot;https://github.com/Planning-Inspectorate/ODW-Service/blob/main/workspace/linkedService/mipins_checkmark_data.json&quot;&gt;Checkmark&lt;/a&gt;" style="aspect=fixed;html=1;points=[];align=center;image;fontSize=12;image=img/lib/azure2/databases/SQL_Database.svg;" parent="32" vertex="1">
                    <mxGeometry x="42" y="236" width="48" height="64" as="geometry"/>
                </mxCell>
                <mxCell id="4" style="edgeStyle=orthogonalEdgeStyle;html=1;flowAnimation=1;rounded=1;orthogonal=1;enumerate=0;orthogonalLoop=0;ignoreEdge=0;noJump=0;" parent="1" source="2" target="3" edge="1">
                    <mxGeometry relative="1" as="geometry"/>
                </mxCell>
                <mxCell id="39" style="edgeStyle=orthogonalEdgeStyle;rounded=1;html=1;flowAnimation=1;" parent="1" source="3" target="38" edge="1">
                    <mxGeometry relative="1" as="geometry"/>
                </mxCell>
                <mxCell id="3" value="&lt;a href=&quot;https://portal.azure.com/?feature.tokencaching=true&amp;amp;feature.internalgraphapiversion=true#view/Microsoft_Azure_Storage/ContainerMenuBlade/~/overview/storageAccountId/%2Fsubscriptions%2Fff442a29-fc06-4a13-8e3e-65fd5da513b3%2FresourceGroups%2Fpins-rg-data-odw-dev-uks%2Fproviders%2FMicrosoft.Storage%2FstorageAccounts%2Fpinsstodwdevuks9h80mb/path/odw-raw/etag/%220x8DA7EAB8AA46CBB%22/defaultEncryptionScope/%24account-encryption-key/denyEncryptionScopeOverride~/false/defaultId//publicAccessVal/None&quot;&gt;Azure Data Lake Storage&lt;br&gt;csv, json, parquet etc&lt;/a&gt;" style="aspect=fixed;html=1;points=[];align=center;image;fontSize=12;image=img/lib/azure2/storage/Storage_Accounts.svg;" parent="1" vertex="1">
                    <mxGeometry x="711" y="578" width="65" height="52" as="geometry"/>
                </mxCell>
                <mxCell id="9" style="edgeStyle=orthogonalEdgeStyle;html=1;flowAnimation=1;orthogonal=0;" parent="1" source="6" target="3" edge="1">
                    <mxGeometry relative="1" as="geometry"/>
                </mxCell>
                <mxCell id="10" style="edgeStyle=orthogonalEdgeStyle;html=1;flowAnimation=1;orthogonal=0;startArrow=none;" parent="1" source="30" target="3" edge="1">
                    <mxGeometry relative="1" as="geometry"/>
                </mxCell>
                <mxCell id="13" style="edgeStyle=orthogonalEdgeStyle;html=1;flowAnimation=1;noJump=0;orthogonalLoop=0;comic=0;" parent="1" source="12" target="3" edge="1">
                    <mxGeometry relative="1" as="geometry"/>
                </mxCell>
                <mxCell id="16" style="edgeStyle=orthogonalEdgeStyle;comic=0;html=1;flowAnimation=1;orthogonal=0;" parent="1" source="15" target="3" edge="1">
                    <mxGeometry relative="1" as="geometry"/>
                </mxCell>
                <mxCell id="20" style="edgeStyle=orthogonalEdgeStyle;comic=0;html=1;flowAnimation=1;" parent="1" source="17" target="3" edge="1">
                    <mxGeometry relative="1" as="geometry"/>
                </mxCell>
                <mxCell id="21" style="edgeStyle=orthogonalEdgeStyle;comic=0;html=1;flowAnimation=1;" parent="1" source="18" target="3" edge="1">
                    <mxGeometry relative="1" as="geometry"/>
                </mxCell>
                <mxCell id="22" style="edgeStyle=orthogonalEdgeStyle;comic=0;html=1;flowAnimation=1;" parent="1" source="19" target="3" edge="1">
                    <mxGeometry relative="1" as="geometry"/>
                </mxCell>
                <mxCell id="31" value="" style="edgeStyle=orthogonalEdgeStyle;html=1;flowAnimation=1;orthogonal=0;endArrow=none;" parent="1" source="8" target="30" edge="1">
                    <mxGeometry relative="1" as="geometry">
                        <mxPoint x="146" y="604" as="sourcePoint"/>
                        <mxPoint x="711" y="604" as="targetPoint"/>
                    </mxGeometry>
                </mxCell>
                <mxCell id="30" value="Synapse pipelines&lt;br&gt;(Ingest)" style="aspect=fixed;html=1;points=[];align=center;image;fontSize=12;image=img/lib/azure2/analytics/Azure_Synapse_Analytics.svg;" parent="1" vertex="1">
                    <mxGeometry x="390" y="570" width="60" height="69" as="geometry"/>
                </mxCell>
                <mxCell id="33" value="&lt;a href=&quot;https://github.com/Planning-Inspectorate/ODW-Service/blob/main/docs/architecture/servicebus-functionapps.md&quot;&gt;Azure Functions&lt;/a&gt;" style="aspect=fixed;html=1;points=[];align=center;image;fontSize=12;image=img/lib/azure2/compute/Function_Apps.svg;" parent="1" vertex="1">
                    <mxGeometry x="84.5" y="119" width="68" height="60" as="geometry"/>
                </mxCell>
                <mxCell id="34" value="Azure Service Bus" style="sketch=0;aspect=fixed;html=1;points=[];align=center;image;fontSize=12;image=img/lib/mscae/Service_Bus.svg;" parent="1" vertex="1">
                    <mxGeometry x="93.5" y="30" width="50" height="50" as="geometry"/>
                </mxCell>
                <mxCell id="37" value="" style="edgeStyle=orthogonalEdgeStyle;rounded=1;html=1;flowAnimation=1;endArrow=none;" parent="1" source="35" target="11" edge="1">
                    <mxGeometry relative="1" as="geometry">
                        <mxPoint x="189.25" y="112" as="sourcePoint"/>
                        <mxPoint x="743.5" y="578" as="targetPoint"/>
                    </mxGeometry>
                </mxCell>
                <mxCell id="11" value="Synapse pipelines&lt;br&gt;(Ingest)" style="aspect=fixed;html=1;points=[];align=center;image;fontSize=12;image=img/lib/azure2/analytics/Azure_Synapse_Analytics.svg;" parent="1" vertex="1">
                    <mxGeometry x="390" y="75" width="60" height="69" as="geometry"/>
                </mxCell>
                <mxCell id="58" style="edgeStyle=orthogonalEdgeStyle;rounded=1;html=1;entryX=-0.009;entryY=0.406;entryDx=0;entryDy=0;entryPerimeter=0;flowAnimation=1;" parent="1" source="38" target="47" edge="1">
                    <mxGeometry relative="1" as="geometry"/>
                </mxCell>
                <mxCell id="38" value="Synapse Apache Spark&lt;br&gt;(Process)" style="aspect=fixed;html=1;points=[];align=center;image;fontSize=12;image=img/lib/azure2/analytics/Azure_Synapse_Analytics.svg;" parent="1" vertex="1">
                    <mxGeometry x="946" y="570" width="60" height="69" as="geometry"/>
                </mxCell>
                <mxCell id="90" style="edgeStyle=orthogonalEdgeStyle;rounded=1;html=1;entryX=0.027;entryY=0.613;entryDx=0;entryDy=0;entryPerimeter=0;fontSize=30;flowAnimation=1;" parent="1" source="54" target="66" edge="1">
                    <mxGeometry relative="1" as="geometry"/>
                </mxCell>
                <mxCell id="54" value="" style="rounded=1;whiteSpace=wrap;html=1;fillColor=#e3c800;strokeColor=none;fontColor=#000000;" parent="1" vertex="1">
                    <mxGeometry x="1097" y="581" width="205" height="335" as="geometry"/>
                </mxCell>
                <mxCell id="55" value="Curated" style="strokeWidth=2;html=1;shape=mxgraph.flowchart.database;whiteSpace=wrap;" parent="1" vertex="1">
                    <mxGeometry x="1143" y="686" width="113" height="115" as="geometry"/>
                </mxCell>
                <mxCell id="60" style="edgeStyle=orthogonalEdgeStyle;rounded=1;html=1;flowAnimation=1;" parent="1" source="46" target="55" edge="1">
                    <mxGeometry relative="1" as="geometry">
                        <Array as="points"/>
                    </mxGeometry>
                </mxCell>
                <mxCell id="61" value="&lt;b&gt;Bronze&lt;/b&gt;" style="text;strokeColor=none;align=center;fillColor=none;html=1;verticalAlign=middle;whiteSpace=wrap;rounded=0;" parent="1" vertex="1">
                    <mxGeometry x="711" y="506" width="60" height="30" as="geometry"/>
                </mxCell>
                <mxCell id="62" value="&lt;b&gt;Silver&lt;/b&gt;" style="text;strokeColor=none;align=center;fillColor=none;html=1;verticalAlign=middle;whiteSpace=wrap;rounded=0;" parent="1" vertex="1">
                    <mxGeometry x="1169.5" y="177" width="60" height="30" as="geometry"/>
                </mxCell>
                <mxCell id="63" value="&lt;b&gt;Gold&lt;/b&gt;" style="text;strokeColor=none;align=center;fillColor=none;html=1;verticalAlign=middle;whiteSpace=wrap;rounded=0;" parent="1" vertex="1">
                    <mxGeometry x="1169.5" y="925" width="60" height="30" as="geometry"/>
                </mxCell>
                <mxCell id="69" value="" style="group" parent="1" vertex="1" connectable="0">
                    <mxGeometry x="1401" y="410" width="209" height="515" as="geometry"/>
                </mxCell>
                <mxCell id="66" value="" style="rounded=1;whiteSpace=wrap;html=1;strokeColor=none;fillColor=#d0cee2;" parent="69" vertex="1">
                    <mxGeometry y="59.47174447174447" width="209" height="455.5282555282555" as="geometry"/>
                </mxCell>
                <mxCell id="65" value="Azure Functions" style="aspect=fixed;html=1;points=[];align=center;image;fontSize=12;image=img/lib/azure2/compute/Function_Apps.svg;" parent="69" vertex="1">
                    <mxGeometry x="70.0021164021164" y="399.00334152334153" width="75.19576719576719" height="66.34920634920636" as="geometry"/>
                </mxCell>
                <mxCell id="67" value="&lt;b&gt;Query / End Users&lt;/b&gt;" style="text;strokeColor=none;align=center;fillColor=none;html=1;verticalAlign=middle;whiteSpace=wrap;rounded=0;" parent="69" vertex="1">
                    <mxGeometry x="39.80952380952381" width="119.42857142857143" height="30.368550368550366" as="geometry"/>
                </mxCell>
                <mxCell id="72" value="PowerBI" style="shape=image;imageAspect=0;aspect=fixed;verticalLabelPosition=bottom;verticalAlign=top;image=data:image/svg+xml,PHN2ZyB4bWxucz0iaHR0cDovL3d3dy53My5vcmcvMjAwMC9zdmciIGZpbGw9Im5vbmUiIHZpZXdCb3g9IjAgMCA5NiA5NiIgaGVpZ2h0PSI5NiIgd2lkdGg9Ijk2Ij4KPGRlZnM+CjxmaWx0ZXIgaWQ9ImZpbHRlcjBfZiI+CjxmZUZsb29kIHJlc3VsdD0iQmFja2dyb3VuZEltYWdlRml4IiBmbG9vZC1vcGFjaXR5PSIwIi8+CjxmZUJsZW5kIHJlc3VsdD0ic2hhcGUiIGluMj0iQmFja2dyb3VuZEltYWdlRml4IiBpbj0iU291cmNlR3JhcGhpYyIgbW9kZT0ibm9ybWFsIi8+CjxmZUdhdXNzaWFuQmx1ciByZXN1bHQ9ImVmZmVjdDFfZm9yZWdyb3VuZEJsdXIiIHN0ZERldmlhdGlvbj0iMC40Ii8+CjwvZmlsdGVyPgo8ZmlsdGVyIGlkPSJmaWx0ZXIxX2YiPgo8ZmVGbG9vZCByZXN1bHQ9IkJhY2tncm91bmRJbWFnZUZpeCIgZmxvb2Qtb3BhY2l0eT0iMCIvPgo8ZmVCbGVuZCByZXN1bHQ9InNoYXBlIiBpbjI9IkJhY2tncm91bmRJbWFnZUZpeCIgaW49IlNvdXJjZUdyYXBoaWMiIG1vZGU9Im5vcm1hbCIvPgo8ZmVHYXVzc2lhbkJsdXIgcmVzdWx0PSJlZmZlY3QxX2ZvcmVncm91bmRCbHVyIiBzdGREZXZpYXRpb249IjQiLz4KPC9maWx0ZXI+CjxsaW5lYXJHcmFkaWVudCBncmFkaWVudFVuaXRzPSJ1c2VyU3BhY2VPblVzZSIgeTI9Ijg5LjQ0NjYiIHgyPSI4OC44NjUzIiB5MT0iLTguOTc3OTVlLTA3IiB4MT0iNDYuNjY2NyIgaWQ9InBhaW50MF9saW5lYXIiPgo8c3RvcCBzdG9wLWNvbG9yPSIjRTZBRDEwIi8+CjxzdG9wIHN0b3AtY29sb3I9IiNDODdFMEUiIG9mZnNldD0iMSIvPgo8L2xpbmVhckdyYWRpZW50Pgo8bGluZWFyR3JhZGllbnQgZ3JhZGllbnRVbml0cz0idXNlclNwYWNlT25Vc2UiIHkyPSI5Mi44MjYyIiB4Mj0iNjcuNDg1OSIgeTE9IjI0IiB4MT0iMzEuOTk3NCIgaWQ9InBhaW50MV9saW5lYXIiPgo8c3RvcCBzdG9wLWNvbG9yPSIjRjZENzUxIi8+CjxzdG9wIHN0b3AtY29sb3I9IiNFNkFEMTAiIG9mZnNldD0iMSIvPgo8L2xpbmVhckdyYWRpZW50Pgo8bGluZWFyR3JhZGllbnQgZ3JhZGllbnRVbml0cz0idXNlclNwYWNlT25Vc2UiIHkyPSI5NC40Nzc1IiB4Mj0iMzEuNjA4MyIgeTE9IjQ4IiB4MT0iMTEuOTk3NCIgaWQ9InBhaW50Ml9saW5lYXIiPgo8c3RvcCBzdG9wLWNvbG9yPSIjRjlFNTg5Ii8+CjxzdG9wIHN0b3AtY29sb3I9IiNGNkQ3NTEiIG9mZnNldD0iMSIvPgo8L2xpbmVhckdyYWRpZW50Pgo8Y2xpcFBhdGggaWQ9ImNsaXAwIj4KPHJlY3QgZmlsbD0id2hpdGUiIGhlaWdodD0iOTYiIHdpZHRoPSI5NiIvPgo8L2NsaXBQYXRoPgo8L2RlZnM+CjxnIGNsaXAtcGF0aD0idXJsKCNjbGlwMCkiPgo8bWFzayBoZWlnaHQ9Ijk2IiB3aWR0aD0iNzIiIHk9IjAiIHg9IjEyIiBtYXNrVW5pdHM9InVzZXJTcGFjZU9uVXNlIiBpZD0ibWFzazAiPgo8cGF0aCBmaWxsPSJ3aGl0ZSIgZD0iTTUyIDRDNTIgMS43OTA4NiA1My43OTA5IDAgNTYgMEg4MEM4Mi4yMDkxIDAgODQgMS43OTA4NiA4NCA0VjkyQzg0IDk0LjIwOTEgODIuMjA5MSA5NiA4MCA5NkgxNkMxMy43OTA5IDk2IDEyIDk0LjIwOTEgMTIgOTJWNTJDMTIgNDkuNzkwOSAxMy43OTA5IDQ4IDE2IDQ4SDMyLjAwMDFWMjhDMzIuMDAwMSAyNS43OTA5IDMzLjc5MSAyNCAzNi4wMDAxIDI0SDUyVjRaIi8+CjwvbWFzaz4KPGcgbWFzaz0idXJsKCNtYXNrMCkiPgo8cGF0aCBmaWxsPSJ1cmwoI3BhaW50MF9saW5lYXIpIiBkPSJNODQgMEw4NCA5Nkg1Mkw1MiAwSDg0WiIvPgo8ZyBmaWx0ZXI9InVybCgjZmlsdGVyMF9mKSI+CjxwYXRoIGZpbGwtb3BhY2l0eT0iMC4yIiBmaWxsPSJibGFjayIgZD0iTTY0IDI4LjRWOTYuNEgzMlYyNC40SDYwQzYyLjIwOTEgMjQuNCA2NCAyNi4xOTA5IDY0IDI4LjRaIi8+CjwvZz4KPGcgZmlsdGVyPSJ1cmwoI2ZpbHRlcjFfZikiPgo8cGF0aCBmaWxsLW9wYWNpdHk9IjAuMTgiIGZpbGw9ImJsYWNrIiBkPSJNNjQgMzBWOThIMzJWMjZINjBDNjIuMjA5MSAyNiA2NCAyNy43OTA5IDY0IDMwWiIvPgo8L2c+CjxwYXRoIGZpbGw9InVybCgjcGFpbnQxX2xpbmVhcikiIGQ9Ik02NCAyOFY5NkgzMlYyNEg2MEM2Mi4yMDkxIDI0IDY0IDI1Ljc5MDkgNjQgMjhaIi8+CjxwYXRoIGZpbGw9InVybCgjcGFpbnQyX2xpbmVhcikiIGQ9Ik0xMiA0OFY5Nkg0NFY1MkM0NCA0OS43OTA5IDQyLjIwOTEgNDggNDAgNDhIMTJaIi8+CjwvZz4KPC9nPgo8L3N2Zz4=;" parent="69" vertex="1">
                    <mxGeometry x="51.42063492063494" y="236.99668304668302" width="106.15873015873015" height="106.15873015873015" as="geometry"/>
                </mxCell>
                <mxCell id="71" value="Synapse SQL" style="aspect=fixed;html=1;points=[];align=center;image;fontSize=12;image=img/lib/azure2/analytics/Azure_Synapse_Analytics.svg;" parent="69" vertex="1">
                    <mxGeometry x="74.5" y="99" width="60" height="69" as="geometry"/>
                </mxCell>
                <mxCell id="73" value="ODW Data Flow" style="text;strokeColor=none;align=center;fillColor=none;html=1;verticalAlign=middle;whiteSpace=wrap;rounded=0;fontStyle=1;fontSize=30;" parent="1" vertex="1">
                    <mxGeometry x="660" y="20" width="300" height="30" as="geometry"/>
                </mxCell>
            </root>
        </mxGraphModel>
    </diagram>
</mxfile>